<?xml version="1.0" encoding="utf-8"?>
<!-- Generator: Adobe Illustrator 24.2.1, SVG Export Plug-In . SVG Version: 6.00 Build 0)  -->
<svg version="1.1" id="Chart" xmlns="http://www.w3.org/2000/svg" xmlns:xlink="http://www.w3.org/1999/xlink" x="0px" y="0px"
	 viewBox="0 0 908.03 605.14" style="enable-background:new 0 0 908.03 605.14;" xml:space="preserve">
<style type="text/css">
	.st0{fill:#191919;}
	.st1{fill:#735244;}
	.st2{fill:#C29682;}
	.st3{fill:#627A9D;}
	.st4{fill:#576C43;}
	.st5{fill:#8580B1;}
	.st6{fill:#67BDAA;}
	.st7{fill:#D67E2C;}
	.st8{fill:#505BA6;}
	.st9{fill:#C15A63;}
	.st10{fill:#5E3C6C;}
	.st11{fill:#9DBC40;}
	.st12{fill:#E0A32E;}
	.st13{fill:#383D96;}
	.st14{fill:#469449;}
	.st15{fill:#AF363C;}
	.st16{fill:#E7C71F;}
	.st17{fill:#BB5695;}
	.st18{fill:#0885A1;}
	.st19{fill:#F3F3F2;}
	.st20{fill:#C8C8C8;}
	.st21{fill:#A0A0A0;}
	.st22{fill:#7A7A79;}
	.st23{fill:#555555;}
	.st24{fill:#343434;}
	.st25{fill:#FFFFFF;}
</style>
<g>
	<rect class="st0" width="908.03" height="605.14"/>
	<g>
		<g>
			<g>
				<g>
					<rect x="41.06" y="27.48" class="st1" width="121.42" height="121.42"/>
					<rect x="181.96" y="27.48" class="st2" width="121.42" height="121.42"/>
					<rect x="322.85" y="27.48" class="st3" width="121.42" height="121.42"/>
					<rect x="463.75" y="27.48" class="st4" width="121.42" height="121.42"/>
					<rect x="604.64" y="27.48" class="st5" width="121.42" height="121.42"/>
					<rect x="745.54" y="27.48" class="st6" width="121.42" height="121.42"/>
					<rect x="41.06" y="167.77" class="st7" width="121.42" height="121.42"/>
					<rect x="181.96" y="167.77" class="st8" width="121.42" height="121.42"/>
					<rect x="322.85" y="167.77" class="st9" width="121.42" height="121.42"/>
					<rect x="463.75" y="167.77" class="st10" width="121.42" height="121.42"/>
					<rect x="604.64" y="167.77" class="st11" width="121.42" height="121.42"/>
					<rect x="745.54" y="167.77" class="st12" width="121.42" height="121.42"/>
					<rect x="41.06" y="306.43" class="st13" width="121.42" height="121.42"/>
					<rect x="181.96" y="306.43" class="st14" width="121.42" height="121.42"/>
					<rect x="322.85" y="306.43" class="st15" width="121.42" height="121.42"/>
					<rect x="463.75" y="306.43" class="st16" width="121.42" height="121.42"/>
					<rect x="604.64" y="306.43" class="st17" width="121.42" height="121.42"/>
					<rect x="745.54" y="306.43" class="st18" width="121.42" height="121.42"/>
					<rect x="41.06" y="445.74" class="st19" width="121.42" height="121.42"/>
					<rect x="181.96" y="445.74" class="st20" width="121.42" height="121.42"/>
					<rect x="322.85" y="445.74" class="st21" width="121.42" height="121.42"/>
					<rect x="463.75" y="445.74" class="st22" width="121.42" height="121.42"/>
					<rect x="604.64" y="445.74" class="st23" width="121.42" height="121.42"/>
					<rect x="745.54" y="445.74" class="st24" width="121.42" height="121.42"/>
				</g>
				<g>
					<g>
						<rect x="870.91" y="13.35" class="st25" width="1.97" height="18.54"/>
						
							<rect x="870.91" y="13.35" transform="matrix(-1.836970e-16 1 -1 -1.836970e-16 894.5095 -849.2809)" class="st25" width="1.97" height="18.54"/>
					</g>
					<g>
						<rect x="35.15" y="13.35" class="st25" width="1.97" height="18.54"/>
						
							<rect x="35.15" y="13.35" transform="matrix(-1.836970e-16 1 -1 -1.836970e-16 58.7471 -13.5185)" class="st25" width="1.97" height="18.54"/>
					</g>
					<g>
						<rect x="870.91" y="562.7" class="st25" width="1.97" height="18.54"/>
						
							<rect x="870.91" y="562.7" transform="matrix(-1.836970e-16 1 -1 -1.836970e-16 1443.8666 -299.9238)" class="st25" width="1.97" height="18.54"/>
					</g>
					<g>
						<rect x="35.15" y="562.7" class="st25" width="1.97" height="18.54"/>
						
							<rect x="35.15" y="562.7" transform="matrix(-1.836970e-16 1 -1 -1.836970e-16 608.1042 535.8386)" class="st25" width="1.97" height="18.54"/>
					</g>
				</g>
			</g>
			<g>
				<path class="st25" d="M51.45,588.93c-0.98-1-1.46-2.23-1.46-3.68c0-1.46,0.48-2.69,1.46-3.68c0.98-1,2.23-1.5,3.73-1.5
					c1.81,0,3.43,0.94,4.28,2.43l-1.15,0.67c-0.57-1.1-1.77-1.81-3.13-1.81c-1.15,0-2.08,0.37-2.81,1.11
					c-0.72,0.74-1.08,1.67-1.08,2.79c0,1.1,0.35,2.03,1.08,2.77c0.72,0.74,1.66,1.11,2.81,1.11c1.36,0,2.57-0.71,3.13-1.8l1.15,0.66
					c-0.41,0.74-1.01,1.34-1.77,1.79c-0.77,0.44-1.6,0.66-2.51,0.66C53.68,590.43,52.43,589.93,51.45,588.93z"/>
				<path class="st25" d="M64.12,590.43c-1.03,0-1.93-0.36-2.65-1.09c-0.72-0.73-1.08-1.61-1.08-2.67c0-1.06,0.35-1.94,1.08-2.67
					c0.72-0.73,1.62-1.09,2.65-1.09c1.03,0,1.93,0.36,2.65,1.09c0.72,0.73,1.09,1.61,1.09,2.67c0,1.06-0.37,1.94-1.09,2.67
					C66.05,590.07,65.16,590.43,64.12,590.43z M65.91,588.49c0.48-0.49,0.72-1.09,0.72-1.81c0-0.73-0.24-1.33-0.72-1.81
					c-0.48-0.49-1.08-0.73-1.79-0.73c-0.69,0-1.29,0.24-1.77,0.73c-0.48,0.49-0.72,1.09-0.72,1.81c0,0.73,0.24,1.33,0.72,1.81
					c0.48,0.49,1.08,0.73,1.77,0.73C64.83,589.21,65.43,588.97,65.91,588.49z"/>
				<path class="st25" d="M69.32,590.24v-10.43h1.23v10.43H69.32z"/>
				<path class="st25" d="M75.77,590.43c-1.03,0-1.93-0.36-2.65-1.09c-0.72-0.73-1.08-1.61-1.08-2.67c0-1.06,0.35-1.94,1.08-2.67
					c0.72-0.73,1.62-1.09,2.65-1.09c1.03,0,1.93,0.36,2.65,1.09c0.72,0.73,1.09,1.61,1.09,2.67c0,1.06-0.37,1.94-1.09,2.67
					C77.7,590.07,76.81,590.43,75.77,590.43z M77.56,588.49c0.48-0.49,0.72-1.09,0.72-1.81c0-0.73-0.24-1.33-0.72-1.81
					c-0.48-0.49-1.08-0.73-1.79-0.73c-0.69,0-1.29,0.24-1.77,0.73c-0.48,0.49-0.72,1.09-0.72,1.81c0,0.73,0.24,1.33,0.72,1.81
					c0.48,0.49,1.08,0.73,1.77,0.73C76.48,589.21,77.08,588.97,77.56,588.49z"/>
				<path class="st25" d="M82.21,584.3c0.41-0.89,1.15-1.33,2.21-1.33v1.3c-0.61-0.03-1.12,0.13-1.56,0.49s-0.65,0.91-0.65,1.7v3.78
					h-1.23v-7.14h1.23V584.3z"/>
				<path class="st25" d="M86.69,588.93c-0.98-1-1.46-2.23-1.46-3.68c0-1.46,0.48-2.69,1.46-3.68s2.23-1.5,3.73-1.5
					c1.81,0,3.43,0.94,4.28,2.43l-1.15,0.67c-0.57-1.1-1.77-1.81-3.13-1.81c-1.15,0-2.08,0.37-2.81,1.11
					c-0.72,0.74-1.08,1.67-1.08,2.79c0,1.1,0.35,2.03,1.08,2.77c0.72,0.74,1.66,1.11,2.81,1.11c1.36,0,2.57-0.71,3.13-1.8l1.15,0.66
					c-0.41,0.74-1.01,1.34-1.77,1.79c-0.77,0.44-1.6,0.66-2.51,0.66C88.91,590.43,87.67,589.93,86.69,588.93z"/>
				<path class="st25" d="M102.38,585.86v4.38h-1.23v-4.31c0-1.16-0.67-1.83-1.76-1.83c-1.23,0-2.06,0.76-2.06,2.36v3.78H96.1v-10
					h1.23v3.88c0.5-0.81,1.26-1.21,2.3-1.21C101.29,582.92,102.38,584.04,102.38,585.86z"/>
				<path class="st25" d="M109.96,583.1h1.23v7.14h-1.23v-1.23c-0.61,0.94-1.5,1.41-2.68,1.41c-0.99,0-1.84-0.36-2.54-1.09
					c-0.69-0.73-1.05-1.63-1.05-2.67c0-1.04,0.35-1.93,1.05-2.66c0.69-0.73,1.55-1.1,2.54-1.1c1.18,0,2.07,0.47,2.68,1.41V583.1z
					 M109.24,588.5c0.48-0.5,0.72-1.1,0.72-1.83c0-0.73-0.24-1.33-0.72-1.81c-0.48-0.5-1.08-0.74-1.8-0.74
					c-0.71,0-1.3,0.24-1.79,0.74c-0.48,0.49-0.72,1.09-0.72,1.81c0,0.73,0.24,1.33,0.72,1.83c0.48,0.49,1.08,0.73,1.79,0.73
					C108.16,589.23,108.76,588.99,109.24,588.5z"/>
				<path class="st25" d="M114.3,584.3c0.41-0.89,1.15-1.33,2.21-1.33v1.3c-0.61-0.03-1.12,0.13-1.56,0.49s-0.65,0.91-0.65,1.7v3.78
					h-1.23v-7.14h1.23V584.3z"/>
				<path class="st25" d="M121.74,584.3h-1.89v3.87c0,1.1,0.62,1.01,1.89,0.96v1.11c-2.15,0.29-3.12-0.3-3.12-2.07v-3.87h-1.4v-1.2
					h1.4v-1.63l1.23-0.37v2h1.89V584.3z"/>
				<path class="st25" d="M136.2,580.25v10h-1.3v-7.81l-3.25,5.44h-0.17l-3.25-5.43v7.8h-1.32v-10h1.49l3.16,5.28l3.15-5.28H136.2z"
					/>
				<path class="st25" d="M144.07,583.1h1.23v7.14h-1.23v-1.23c-0.61,0.94-1.5,1.41-2.68,1.41c-0.99,0-1.84-0.36-2.54-1.09
					c-0.69-0.73-1.05-1.63-1.05-2.67c0-1.04,0.35-1.93,1.05-2.66c0.69-0.73,1.55-1.1,2.54-1.1c1.18,0,2.07,0.47,2.68,1.41V583.1z
					 M143.34,588.5c0.48-0.5,0.72-1.1,0.72-1.83c0-0.73-0.24-1.33-0.72-1.81c-0.48-0.5-1.08-0.74-1.8-0.74
					c-0.71,0-1.3,0.24-1.79,0.74c-0.48,0.49-0.72,1.09-0.72,1.81c0,0.73,0.24,1.33,0.72,1.83c0.48,0.49,1.08,0.73,1.79,0.73
					C142.27,589.23,142.86,588.99,143.34,588.5z"/>
				<path class="st25" d="M147.84,589.36c-0.71-0.73-1.06-1.61-1.06-2.69s0.35-1.96,1.06-2.67c0.71-0.73,1.6-1.09,2.66-1.09
					c1.4,0,2.58,0.73,3.13,1.87l-1.03,0.6c-0.35-0.76-1.15-1.26-2.1-1.26c-0.71,0-1.3,0.24-1.79,0.73
					c-0.47,0.49-0.71,1.09-0.71,1.81c0,0.71,0.24,1.31,0.71,1.8c0.48,0.49,1.08,0.73,1.79,0.73c0.95,0,1.74-0.49,2.14-1.24
					l1.05,0.61c-0.61,1.13-1.81,1.86-3.19,1.86C149.44,590.43,148.55,590.07,147.84,589.36z"/>
				<path class="st25" d="M161.36,584.02c0.69,0.73,1.05,1.61,1.05,2.66c0,1.04-0.35,1.94-1.05,2.67c-0.69,0.73-1.54,1.09-2.54,1.09
					c-1.18,0-2.07-0.47-2.68-1.41v1.23h-1.23v-10h1.23v4.08c0.61-0.94,1.5-1.41,2.68-1.41
					C159.81,582.92,160.66,583.29,161.36,584.02z M160.45,588.5c0.48-0.5,0.72-1.1,0.72-1.83c0-0.73-0.24-1.33-0.72-1.81
					c-0.48-0.5-1.08-0.74-1.79-0.74c-0.72,0-1.32,0.24-1.8,0.74c-0.48,0.49-0.72,1.09-0.72,1.81c0,0.73,0.24,1.33,0.72,1.83
					c0.48,0.49,1.08,0.73,1.8,0.73C159.37,589.23,159.97,588.99,160.45,588.5z"/>
				<path class="st25" d="M164.75,587.24c0.24,1.27,1.22,2.01,2.57,2.01c0.94,0,1.62-0.34,2.04-1.04l1.05,0.6
					c-0.69,1.07-1.73,1.61-3.12,1.61c-1.12,0-2.04-0.36-2.75-1.06c-0.69-0.71-1.05-1.61-1.05-2.7c0-1.07,0.34-1.97,1.03-2.68
					c0.69-0.71,1.59-1.07,2.68-1.07c1.03,0,1.89,0.37,2.54,1.11c0.67,0.73,0.99,1.61,0.99,2.66c0,0.19-0.01,0.37-0.04,0.56H164.75z
					 M164.75,586.16h4.73c-0.21-1.36-1.15-2.07-2.28-2.07C165.88,584.09,164.96,584.9,164.75,586.16z"/>
				<path class="st25" d="M175.79,584.3h-1.89v3.87c0,1.1,0.62,1.01,1.89,0.96v1.11c-2.15,0.29-3.12-0.3-3.12-2.07v-3.87h-1.4v-1.2
					h1.4v-1.63l1.23-0.37v2h1.89V584.3z"/>
				<path class="st25" d="M183.53,585.86v4.38h-1.23v-4.31c0-1.16-0.67-1.83-1.76-1.83c-1.23,0-2.06,0.76-2.06,2.36v3.78h-1.23v-10
					h1.23v3.88c0.5-0.81,1.26-1.21,2.3-1.21C182.44,582.92,183.53,584.04,183.53,585.86z"/>
			</g>
		</g>
		<g>
			<path class="st25" d="M824.98,591.65h-2.1v-5.92c0-0.57-0.2-1.06-0.61-1.46c-0.4-0.4-0.89-0.61-1.45-0.61
				c-0.57,0-1.06,0.2-1.46,0.61c-0.4,0.4-0.61,0.89-0.61,1.46v5.92h-2.1v-9.97h2.1v0.41c0.65-0.36,1.34-0.54,2.07-0.52
				c1.14,0,2.12,0.41,2.93,1.23c0.82,0.81,1.23,1.79,1.23,2.94V591.65z"/>
			<path class="st25" d="M827.13,590.28c-1-1-1.5-2.2-1.5-3.61c0-1.4,0.5-2.6,1.5-3.6c1-1,2.2-1.5,3.61-1.5c1.4,0,2.6,0.5,3.6,1.5
				c1,1,1.5,2.2,1.5,3.6c0,1.41-0.5,2.61-1.5,3.61c-1,1-2.2,1.5-3.6,1.5C829.33,591.78,828.13,591.28,827.13,590.28z M828.62,584.55
				c-0.59,0.59-0.89,1.3-0.89,2.12c0,0.83,0.29,1.54,0.89,2.13c0.58,0.58,1.29,0.88,2.12,0.88s1.54-0.29,2.12-0.88
				c0.58-0.59,0.88-1.3,0.88-2.13c0-0.83-0.29-1.54-0.88-2.12c-0.58-0.58-1.29-0.88-2.12-0.88S829.2,583.96,828.62,584.55z"/>
			<path class="st25" d="M841.18,591.79c-1.41,0-2.61-0.5-3.61-1.51c-1-1-1.5-2.2-1.5-3.6c0-1.4,0.5-2.6,1.5-3.6
				c1-1.01,2.2-1.51,3.61-1.51c1.25-0.02,2.25,0.28,3,0.89v-5.43h2.1v14.62h-2.1v-0.76C843.59,591.49,842.59,591.79,841.18,591.79z
				 M841.18,583.68c-0.83,0-1.54,0.29-2.13,0.88c-0.58,0.58-0.88,1.29-0.88,2.12c0,0.83,0.29,1.54,0.88,2.12
				c0.59,0.58,1.3,0.88,2.13,0.88s1.54-0.29,2.12-0.88c0.58-0.58,0.88-1.29,0.88-2.12c0-0.83-0.29-1.54-0.88-2.12
				C842.72,583.97,842.01,583.68,841.18,583.68z"/>
			<path class="st25" d="M851.74,581.57c1.4,0,2.6,0.5,3.6,1.5c1,1,1.5,2.2,1.5,3.6l-0.02,0.65h-8.02c0.08,0.49,0.38,1.01,0.9,1.56
				c0.57,0.53,1.25,0.79,2.03,0.79c0.56,0,1.08-0.15,1.57-0.46c0.46-0.28,0.87-0.76,1.23-1.45l1.94,0.84
				c-0.54,1.08-1.22,1.88-2.02,2.38c-0.82,0.53-1.73,0.79-2.72,0.79c-1.4,0-2.6-0.5-3.6-1.5c-1.01-1-1.51-2.2-1.51-3.61
				c0-1.4,0.5-2.6,1.51-3.6C849.14,582.07,850.34,581.57,851.74,581.57z M854.38,585.22c-0.15-0.31-0.45-0.63-0.89-0.98
				c-0.52-0.38-1.11-0.57-1.75-0.57c-0.65,0-1.23,0.19-1.75,0.57c-0.43,0.35-0.72,0.67-0.88,0.98H854.38z M853.58,575.99l1.72,1.22
				l-2.63,3.74l-1.72-1.22L853.58,575.99z"/>
			<polygon class="st25" points="815.22,588.11 812.59,580.7 811.34,577.17 810.41,577.17 808.03,577.17 802.89,591.65 
				806.63,591.65 807.72,588.6 808.29,586.7 806.08,585.01 808.83,585.01 809.67,582.26 810.54,585.06 813.27,585.06 811.05,586.74 
				811.54,588.27 812.74,591.65 816.5,591.65 			"/>
		</g>
	</g>
</g>
</svg>
